<svg xmlns="http://www.w3.org/2000/svg" version="1.1" xmlns:xlink="http://www.w3.org/1999/xlink" xmlns:svgjs="http://svgjs.dev/svgjs" width="1000" height="164" viewBox="0 0 1000 164"><g transform="matrix(1,0,0,1,-0.6060606060606233,-0.19647001707926393)"><svg viewBox="0 0 396 65" data-background-color="#ffffff" preserveAspectRatio="xMidYMid meet" height="164" width="1000" xmlns="http://www.w3.org/2000/svg" xmlns:xlink="http://www.w3.org/1999/xlink"><g id="tight-bounds" transform="matrix(1,0,0,1,0.2400000000000091,0.07786921408629155)"><svg viewBox="0 0 395.52 64.84395469005734" height="64.84395469005734" width="395.52"><g><svg viewBox="0 0 489.47567896724706 80.24762021854072" height="64.84395469005734" width="395.52"><g transform="matrix(1,0,0,1,93.95567896724708,11.090662418047238)"><svg viewBox="0 0 395.52 58.06629538244624" height="58.06629538244624" width="395.52"><g><svg viewBox="0 0 395.52 58.06629538244624" height="58.06629538244624" width="395.52"><g><svg viewBox="0 0 395.52 58.06629538244624" height="58.06629538244624" width="395.52"><g transform="matrix(1,0,0,1,0,0)"><svg width="395.52" viewBox="1.05 -41.05 283.68 41.65" height="58.06629538244624" data-palette-color="#bc7b09"><path d="M9.5 0L1.05 0 8.7-40.5 18.9-40.5 26.45 0 18.2 0 16.85-8.55 10.9-8.55 9.5 0ZM13.85-29.7L11.7-13.9 16-13.9 13.85-29.7ZM41.85 0.6L41.85 0.6Q37.2 0.6 34.57-0.93 31.95-2.45 30.9-5.38 29.85-8.3 29.85-12.55L29.85-12.55 29.85-40.5 38.7-40.5 38.7-11.2Q38.7-9.95 38.9-8.7 39.1-7.45 39.77-6.65 40.45-5.85 41.85-5.85L41.85-5.85Q43.3-5.85 43.95-6.65 44.6-7.45 44.77-8.7 44.95-9.95 44.95-11.2L44.95-11.2 44.95-40.5 53.85-40.5 53.85-12.55Q53.85-8.3 52.77-5.38 51.7-2.45 49.1-0.93 46.5 0.6 41.85 0.6ZM72.2 0L63.2 0 63.2-33.85 57.09-33.85 57.09-40.5 78.25-40.5 78.25-33.85 72.2-33.85 72.2 0ZM92.99 0.6L92.99 0.6Q88.44 0.6 85.79-1 83.14-2.6 81.99-5.6 80.84-8.6 80.84-12.75L80.84-12.75 80.84-27.8Q80.84-32 81.99-34.95 83.14-37.9 85.79-39.48 88.44-41.05 92.99-41.05L92.99-41.05Q97.59-41.05 100.27-39.48 102.94-37.9 104.09-34.95 105.24-32 105.24-27.8L105.24-27.8 105.24-12.75Q105.24-8.6 104.09-5.6 102.94-2.6 100.27-1 97.59 0.6 92.99 0.6ZM92.99-5.75L92.99-5.75Q94.39-5.75 95.04-6.45 95.69-7.15 95.89-8.25 96.09-9.35 96.09-10.5L96.09-10.5 96.09-30Q96.09-31.2 95.89-32.27 95.69-33.35 95.04-34.05 94.39-34.75 92.99-34.75L92.99-34.75Q91.69-34.75 91.04-34.05 90.39-33.35 90.19-32.27 89.99-31.2 89.99-30L89.99-30 89.99-10.5Q89.99-9.35 90.17-8.25 90.34-7.15 90.97-6.45 91.59-5.75 92.99-5.75ZM119.69 0L110.74 0 110.74-40.5 119.69-40.5 119.69 0ZM137.34 0.6L137.34 0.6Q132.74 0.6 130.06-1.07 127.39-2.75 126.29-5.78 125.19-8.8 125.19-12.9L125.19-12.9 125.19-27.5Q125.19-31.7 126.29-34.73 127.39-37.75 130.06-39.4 132.74-41.05 137.34-41.05L137.34-41.05Q141.84-41.05 144.36-39.58 146.89-38.1 147.94-35.45 148.99-32.8 148.99-29.35L148.99-29.35 148.99-25.85 140.24-25.85 140.24-29.9Q140.24-31.1 140.11-32.2 139.99-33.3 139.39-34.02 138.79-34.75 137.34-34.75L137.34-34.75Q135.94-34.75 135.26-34 134.59-33.25 134.41-32.13 134.24-31 134.24-29.75L134.24-29.75 134.24-10.7Q134.24-9.35 134.46-8.22 134.69-7.1 135.36-6.43 136.04-5.75 137.34-5.75L137.34-5.75Q138.74-5.75 139.34-6.48 139.94-7.2 140.09-8.35 140.24-9.5 140.24-10.7L140.24-10.7 140.24-14.95 148.99-14.95 148.99-11.45Q148.99-8 147.96-5.28 146.94-2.55 144.41-0.98 141.89 0.6 137.34 0.6ZM162.98 0L154.03 0 154.03-40.5 162.98-40.5 162.98-24.1 169.23-24.1 169.23-40.5 178.23-40.5 178.23 0 169.23 0 169.23-17.7 162.98-17.7 162.98 0ZM190.88 0L182.43 0 190.08-40.5 200.28-40.5 207.83 0 199.58 0 198.23-8.55 192.28-8.55 190.88 0ZM195.23-29.7L193.08-13.9 197.38-13.9 195.23-29.7ZM220.48 0L211.53 0 211.53-40.5 222.68-40.5Q226.78-40.5 229.78-39.6 232.78-38.7 234.46-36.38 236.13-34.05 236.13-29.8L236.13-29.8Q236.13-27.3 235.73-25.35 235.33-23.4 234.25-21.98 233.18-20.55 231.18-19.6L231.18-19.6 236.73 0 227.48 0 223.03-18.15 220.48-18.15 220.48 0ZM220.48-34.5L220.48-23.3 222.98-23.3Q224.88-23.3 225.93-23.98 226.98-24.65 227.41-25.93 227.83-27.2 227.83-29L227.83-29Q227.83-31.6 226.88-33.05 225.93-34.5 223.38-34.5L223.38-34.5 220.48-34.5ZM253.78 0L244.78 0 244.78-33.85 238.68-33.85 238.68-40.5 259.83-40.5 259.83-33.85 253.78-33.85 253.78 0ZM274.13 0.6L274.13 0.6Q270.32 0.6 267.77-0.75 265.23-2.1 263.93-4.93 262.63-7.75 262.48-12.25L262.48-12.25 270.13-13.4Q270.18-10.8 270.6-9.2 271.02-7.6 271.8-6.9 272.57-6.2 273.68-6.2L273.68-6.2Q275.07-6.2 275.5-7.15 275.93-8.1 275.93-9.15L275.93-9.15Q275.93-11.65 274.73-13.38 273.52-15.1 271.48-16.85L271.48-16.85 267.98-19.9Q265.68-21.85 264.1-24.33 262.52-26.8 262.52-30.45L262.52-30.45Q262.52-35.6 265.57-38.33 268.63-41.05 273.88-41.05L273.88-41.05Q277.13-41.05 279.1-39.95 281.07-38.85 282.1-37.08 283.13-35.3 283.5-33.33 283.88-31.35 283.93-29.55L283.93-29.55 276.23-28.6Q276.18-30.4 276-31.73 275.82-33.05 275.27-33.77 274.73-34.5 273.57-34.5L273.57-34.5Q272.32-34.5 271.75-33.45 271.18-32.4 271.18-31.35L271.18-31.35Q271.18-29.1 272.25-27.68 273.32-26.25 275.07-24.7L275.07-24.7 278.43-21.75Q281.07-19.5 282.9-16.65 284.73-13.8 284.73-9.6L284.73-9.6Q284.73-6.75 283.43-4.42 282.13-2.1 279.75-0.75 277.38 0.6 274.13 0.6Z" opacity="1" transform="matrix(1,0,0,1,0,0)" fill="#bc7b09" class="undefined-text-0" data-fill-palette-color="primary" id="text-0"></path></svg></g></svg></g></svg></g></svg></g><g><svg viewBox="0 0 80.2476202185407 80.24762021854072" height="80.24762021854072" width="80.2476202185407"><g><svg></svg></g><g id="icon-0"><svg viewBox="0 0 80.2476202185407 80.24762021854072" height="80.24762021854072" width="80.2476202185407"><g><path transform="scale(0.80248,0.80248)" d="M30 100c-16.569 0-30-13.431-30-30v-40c0-16.569 13.431-30 30-30h40c16.569 0 30 13.431 30 30v40c0 16.569-13.431 30-30 30z" fill="#a36612" fill-rule="nonzero" stroke="none" stroke-width="1" stroke-linecap="butt" stroke-linejoin="miter" stroke-miterlimit="10" stroke-dasharray="" stroke-dashoffset="0" font-family="none" font-weight="none" font-size="none" text-anchor="none" style="mix-blend-mode: normal" data-fill-palette-color="accent"></path></g><g transform="matrix(1,0,0,1,16.049524043708136,16.049524043708143)"><svg viewBox="0 0 48.14857213112443 48.14857213112443" height="48.14857213112443" width="48.14857213112443"><g><svg xmlns="http://www.w3.org/2000/svg" xmlns:xlink="http://www.w3.org/1999/xlink" version="1.1" x="0" y="0" viewBox="0 0 512 512" enable-background="new 0 0 512 512" xml:space="preserve" height="48.14857213112443" width="48.14857213112443" class="icon-ju-0" data-fill-palette-color="quaternary" id="ju-0"><path d="M512 480v32H0V0h32v480H512zM228.906 177.719l130.719 32.656L404.875 135l41 24.625L448 32 336.406 93.938l41 24.625-33.031 55.063-125.281-31.344L84.688 276.688l22.625 22.625L228.906 177.719zM192 448h64V217.469l-17.281-4.313L192 259.875V448zM96 333.25V448h64V291.875l-52.688 52.688L96 333.25zM384 232v216h64V198.219l-32.156-19.281L384 232zM352 448V241.469l-64-16V448H352z" fill="#ffffff" data-fill-palette-color="quaternary"></path></svg></g></svg></g></svg></g></svg></g></svg></g><defs></defs></svg><rect width="395.52" height="64.84395469005734" fill="none" stroke="none" visibility="hidden"></rect></g></svg></g></svg>