<?xml version="1.0" encoding="UTF-8" standalone="no"?>
<!-- Created with Inkscape (http://www.inkscape.org/) -->

<svg
   version="1.1"
   id="svg2"
   width="1198.5067"
   height="256.32001"
   viewBox="0 0 1198.5067 256.32001"
   sodipodi:docname="Adevity Blue Logo 13.eps"
   xmlns:inkscape="http://www.inkscape.org/namespaces/inkscape"
   xmlns:sodipodi="http://sodipodi.sourceforge.net/DTD/sodipodi-0.dtd"
   xmlns="http://www.w3.org/2000/svg"
   xmlns:svg="http://www.w3.org/2000/svg">
  <defs
     id="defs6" />
  <sodipodi:namedview
     id="namedview4"
     pagecolor="#ffffff"
     bordercolor="#000000"
     borderopacity="0.25"
     inkscape:showpageshadow="2"
     inkscape:pageopacity="0.0"
     inkscape:pagecheckerboard="0"
     inkscape:deskcolor="#d1d1d1" />
  <g
     id="g8"
     inkscape:groupmode="layer"
     inkscape:label="ink_ext_XXXXXX"
     transform="matrix(1.3333333,0,0,-1.3333333,0,256.32)">
    <g
       id="g10"
       transform="scale(0.1)">
      <path
         d="m 663.574,-0.0117188 c -9.07,0 -18.277,0.9726568 -27.504,2.9999988 C 567.211,18.1016 523.648,86.1797 538.77,155.051 L 904.867,1822.05 c 15.125,68.84 83.156,112.46 152.053,97.29 68.86,-15.12 112.43,-83.2 97.3,-152.07 L 788.129,100.281 C 775.031,40.6602 722.215,-0.0117188 663.574,-0.0117188"
         style="fill:#58a2de;fill-opacity:1;fill-rule:nonzero;stroke:none"
         id="path12" />
      <path
         d="M 580.719,620.441 472.902,129.27 0,749.27 c 38.4922,68.921 125.883,190.886 312.453,311.66 L 580.719,620.441"
         style="fill:#4f68bb;fill-opacity:1;fill-rule:nonzero;stroke:none"
         id="path14" />
      <path
         d="M 846.234,1830.38 737.434,1334.7 312.453,1060.93 C 125.883,940.156 38.4922,818.191 0,749.27 l 93.2813,585.62 c 12.1797,75.81 59.7027,141.2 128.0467,176.16 l 624.906,319.33"
         style="fill:#4b89ce;fill-opacity:1;fill-rule:nonzero;stroke:none"
         id="path16" />
      <path
         d="M 1526.52,413.641 837.199,49.1406 945.016,540.121 1373.54,827.629 C 1492.15,639.68 1520.43,492.391 1526.52,413.641"
         style="fill:#4f68bb;fill-opacity:1;fill-rule:nonzero;stroke:none"
         id="path18" />
      <path
         d="M 1687.36,984.344 1526.52,413.641 c -6.09,78.75 -34.37,226.039 -152.98,413.988 l -271.42,427.531 108.8,495.68 434.22,-552.83 c 47.33,-60.49 63.04,-139.83 42.22,-213.666"
         style="fill:#4b89ce;fill-opacity:1;fill-rule:nonzero;stroke:none"
         id="path20" />
      <path
         d="m 2465.73,871.371 -81.35,369.009 -79.91,-369.009 z M 2987.3,608.41 c 0,-27.121 -13.57,-40.672 -40.68,-40.672 h -357.4 c -15.5,0 -30.28,5.313 -44.31,15.973 -14.05,10.648 -22.51,23.238 -25.42,37.777 l -26.15,120.582 h -215.01 l -27.61,-120.582 c -2.9,-14.539 -11.4,-27.129 -25.43,-37.777 -14.04,-10.66 -28.32,-15.973 -42.85,-15.973 h -358.85 c -12.6,0 -22.28,4.352 -29.05,13.071 -6.79,8.711 -10.17,19.363 -10.17,31.953 0,6.769 1.45,14.047 4.36,21.808 l 246.98,751.11 c 4.83,13.54 13.8,25.89 26.87,37.03 13.07,11.13 27.35,16.7 42.86,16.7 h 560.79 c 15.47,0 29.53,-5.57 42.13,-16.7 12.57,-11.14 21.29,-23.49 26.15,-37.03 l 248.43,-751.11 c 2.91,-8.718 4.36,-17.429 4.36,-26.16"
         style="fill:#4f68bb;fill-opacity:1;fill-rule:nonzero;stroke:none"
         id="path22" />
      <path
         d="m 3664.29,797.289 v 412.601 c 0,28.07 -11.15,52.3 -33.42,72.63 -22.29,20.35 -48.91,30.51 -79.9,30.51 h -68.28 V 695.578 h 68.28 c 30.99,0 57.61,9.922 79.9,29.781 22.27,19.86 33.42,43.832 33.42,71.93 z m 421.32,-84.277 c 0,-20.321 -5.09,-39.223 -15.26,-56.653 -10.16,-17.429 -24.22,-32.699 -42.13,-45.757 -17.94,-13.082 -39,-23.493 -63.2,-31.243 -24.22,-7.769 -49.89,-11.621 -77,-11.621 h -771.44 c -15.5,0 -28.58,5.313 -39.23,15.973 -10.66,10.648 -15.98,23.719 -15.98,39.238 v 762.731 c 0,14.52 5.32,27.1 15.98,37.76 10.65,10.64 23.73,15.97 39.23,15.97 h 771.44 c 27.11,0 52.78,-3.87 77,-11.62 24.2,-7.74 45.26,-18.16 63.2,-31.22 17.91,-13.08 31.97,-28.33 42.13,-45.78 10.17,-17.43 15.26,-36.3 15.26,-56.65 V 713.012"
         style="fill:#4b89ce;fill-opacity:1;fill-rule:nonzero;stroke:none"
         id="path24" />
      <path
         d="m 5092.39,621.488 c 0,-14.539 -5.08,-27.129 -15.25,-37.777 -10.16,-10.66 -22.52,-15.973 -37.05,-15.973 H 4242.5 c -14.53,0 -26.88,5.313 -37.05,15.973 -10.17,10.648 -15.25,23.238 -15.25,37.777 v 764.192 c 0,14.52 5.08,27.1 15.25,37.76 10.17,10.64 22.52,15.97 37.05,15.97 h 797.59 c 14.53,0 26.89,-5.33 37.05,-15.97 10.17,-10.66 15.25,-23.24 15.25,-37.76 v -72.65 c 0,-15.49 -5.08,-28.58 -15.25,-39.22 -10.16,-10.68 -22.52,-16 -37.05,-16 h -408.23 v -177.22 h 268.76 c 14.52,0 26.88,-5.36 37.05,-16 10.17,-10.66 15.26,-23.74 15.26,-39.22 v -46.487 c 0,-14.535 -5.09,-27.141 -15.26,-37.778 -10.17,-10.664 -22.53,-15.976 -37.05,-15.976 H 4631.86 V 749.34 h 408.23 c 14.53,0 26.89,-5.34 37.05,-15.981 10.17,-10.679 15.25,-23.738 15.25,-39.238 v -72.633"
         style="fill:#4b89ce;fill-opacity:1;fill-rule:nonzero;stroke:none"
         id="path26" />
      <path
         d="m 6280.79,1385.68 -252.8,-762.731 c -2.9,-15.519 -10.66,-28.59 -23.25,-39.238 -12.6,-10.66 -26.63,-15.973 -42.11,-15.973 H 5486.1 c -15.51,0 -29.78,5.313 -42.86,15.973 -13.08,10.648 -21.06,23.719 -23.98,39.238 l -251.32,762.731 c -2.91,14.52 -0.26,27.1 7.99,37.76 8.21,10.64 19.6,15.97 34.13,15.97 h 329.8 c 15.48,0 29.54,-5.33 42.12,-15.97 12.58,-10.66 20.34,-23.24 23.24,-37.76 l 119.14,-543.36 119.13,543.36 c 2.9,14.52 10.65,27.1 23.24,37.76 12.59,10.64 26.63,15.97 42.14,15.97 h 329.78 c 14.54,0 25.91,-5.33 34.16,-15.97 8.2,-10.66 10.89,-23.24 7.98,-37.76"
         style="fill:#4b89ce;fill-opacity:1;fill-rule:nonzero;stroke:none"
         id="path28" />
      <path
         d="m 6777.62,622.949 c 0,-15.519 -5.33,-28.59 -15.97,-39.238 -10.67,-10.66 -23.25,-15.973 -37.79,-15.973 h -312.34 c -15.52,0 -28.59,5.313 -39.24,15.973 -10.66,10.648 -15.98,23.719 -15.98,39.238 v 762.731 c 0,14.52 5.32,27.1 15.98,37.76 10.65,10.64 23.72,15.97 39.24,15.97 h 312.34 c 14.54,0 27.12,-5.33 37.79,-15.97 10.64,-10.66 15.97,-23.24 15.97,-37.76 V 622.949"
         style="fill:#4f68bb;fill-opacity:1;fill-rule:nonzero;stroke:none"
         id="path30" />
      <path
         d="m 7890.48,1313.03 c 0,-15.49 -5.33,-28.58 -15.97,-39.22 -10.66,-10.68 -23.24,-16 -37.78,-16 H 7591.21 V 622.949 c 0,-15.519 -5.34,-28.59 -15.98,-39.238 -10.66,-10.66 -23.74,-15.973 -39.22,-15.973 h -321.08 c -15.5,0 -28.33,5.313 -38.5,15.973 -10.15,10.648 -15.24,23.719 -15.24,39.238 v 634.861 h -254.25 c -15.52,0 -28.58,5.32 -39.22,16 -10.68,10.64 -16,23.73 -16,39.22 v 72.65 c 0,14.52 5.32,27.1 16,37.76 10.64,10.64 23.7,15.97 39.22,15.97 h 929.79 c 14.54,0 27.12,-5.33 37.78,-15.97 10.64,-10.66 15.97,-23.24 15.97,-37.76 v -72.65"
         style="fill:#4f68bb;fill-opacity:1;fill-rule:nonzero;stroke:none"
         id="path32" />
      <path
         d="m 8988.8,713.012 c 0,-20.321 -5.08,-39.223 -15.25,-56.653 -10.17,-17.429 -24.22,-32.699 -42.13,-45.757 -17.94,-13.082 -38.99,-23.493 -63.19,-31.243 -24.23,-7.769 -49.9,-11.621 -77,-11.621 h -629.08 c -27.12,0 -52.8,3.852 -76.98,11.621 -24.23,7.75 -45.3,18.161 -63.21,31.243 -17.93,13.058 -31.95,28.328 -42.14,45.757 -10.17,17.43 -15.24,36.332 -15.24,56.653 v 53.758 c 0,15.48 5.31,28.55 15.97,39.218 10.65,10.66 23.72,15.992 39.24,15.992 h 312.33 c 14.55,0 27.12,-5.332 37.79,-15.992 10.64,-10.668 15.97,-23.738 15.97,-39.218 v -23.239 c 0,-28.101 8.96,-52.312 26.9,-72.652 17.91,-20.328 39.44,-30.5 64.65,-30.5 25.15,0 46.48,10.172 63.91,30.5 17.44,20.34 26.15,44.551 26.15,72.652 v 156.891 h -405.34 c -27.12,0 -52.8,3.859 -76.98,11.617 -24.23,7.762 -45.3,18.168 -63.21,31.254 -17.93,13.074 -31.95,28.32 -42.14,45.758 -10.17,17.429 -15.24,36.319 -15.24,56.669 v 338.5 c 0,15.48 5.31,28.56 15.97,39.22 10.65,10.64 23.72,15.97 39.24,15.97 h 312.33 c 14.55,0 27.12,-5.33 37.79,-15.97 10.64,-10.66 15.97,-23.74 15.97,-39.22 v -290.57 c 0,-28.1 8.96,-52.07 26.9,-71.9 17.91,-19.87 39.44,-29.785 64.65,-29.785 25.15,0 46.48,9.915 63.91,29.785 17.44,19.83 26.15,43.8 26.15,71.9 v 290.57 c 0,15.48 5.31,28.56 15.99,39.22 10.65,10.64 23.7,15.97 39.22,15.97 h 312.36 c 14.52,0 27.1,-5.33 37.77,-15.97 10.64,-10.66 15.97,-23.74 15.97,-39.22 V 713.012"
         style="fill:#4b89ce;fill-opacity:1;fill-rule:nonzero;stroke:none"
         id="path34" />
    </g>
  </g>
</svg>
